<?xml version="1.0" encoding="UTF-8"?>
<svg width="517px" height="129px" viewBox="0 0 517 129" version="1.1" xmlns="http://www.w3.org/2000/svg" xmlns:xlink="http://www.w3.org/1999/xlink">
    <!-- Generator: Sketch 49.1 (51147) - http://www.bohemiancoding.com/sketch -->
    <title>Group 2</title>
    <desc>Created with Sketch.</desc>
    <defs></defs>
    <g id="Page-1" stroke="none" stroke-width="1" fill="none" fill-rule="evenodd">
        <g id="Group-2" fill="#FFFFFF" fill-rule="nonzero">
            <path d="M138.164,114.346 L138.164,76.556 L125.447,76.556 C125.045,76.556 124.704,76.405 124.422,76.104 C124.148242,75.8213995 123.996659,75.44244 124,75.049 C124,74.647 124.141,74.306 124.422,74.024 C124.690784,73.747901 125.061735,73.5951776 125.447,73.602 L153.775,73.602 C154.177,73.602 154.518,73.743 154.8,74.024 C155.081,74.305 155.222,74.647 155.222,75.049 C155.225126,75.4423995 155.073574,75.8212804 154.8,76.104 C154.53992,76.3960045 154.166004,76.5608923 153.775,76.556 L141.058,76.556 L141.058,114.346 C141.058,114.748 140.917,115.089 140.636,115.371 C140.367216,115.647099 139.996265,115.799822 139.611,115.793 C139.209,115.793 138.868,115.652 138.586,115.371 C138.309901,115.102216 138.157178,114.731265 138.164,114.346 Z M166.311,114.346 L166.311,75.049 C166.311,74.647 166.452,74.306 166.733,74.024 C167.001784,73.747901 167.372735,73.5951776 167.758,73.602 L189.456,73.602 C189.858,73.602 190.199,73.743 190.481,74.024 C190.762,74.305 190.903,74.657 190.903,75.079 C190.903,75.501 190.762,75.852 190.481,76.134 C190.212216,76.410099 189.841265,76.5628224 189.456,76.556 L169.265,76.556 L169.265,93.251 L186.925,93.251 C187.327,93.251 187.668,93.402 187.95,93.703 C188.231,94.004 188.372,94.356 188.372,94.758 C188.372,95.16 188.231,95.501 187.95,95.783 C187.681216,96.059099 187.310265,96.2118224 186.925,96.205 L169.265,96.205 L169.265,112.84 L189.456,112.84 C189.858,112.84 190.199,112.981 190.481,113.262 C190.762,113.543 190.903,113.895 190.903,114.317 C190.903,114.739 190.762,115.09 190.481,115.372 C190.212216,115.648099 189.841265,115.800822 189.456,115.794 L167.638,115.794 C167.276,115.754 166.965,115.603 166.704,115.342 C166.443,115.081 166.312,114.749 166.312,114.348 L166.311,114.346 Z M206.603,109.554 C202.324,105.395 200.184,100.353 200.184,94.426 C200.184,88.499 202.324,83.457 206.603,79.298 C210.882,75.139 216.056,73.04 222.123,73 C227.186,73 231.726,74.547 235.744,77.641 C236.065,77.922 236.256,78.274 236.317,78.696 C236.377,79.118 236.267,79.469 235.986,79.751 C235.769041,80.0982585 235.400211,80.3220056 234.992,80.354 C234.57,80.394 234.219,80.294 233.937,80.053 C230.441,77.321 226.504,75.955 222.124,75.955 C216.86,75.955 212.38,77.763 208.683,81.379 C204.986,84.995 203.138,89.355 203.138,94.458 C203.138,99.561 204.986,103.901 208.683,107.477 C212.38,111.053 216.689,112.841 221.611,112.841 C226.533,112.841 230.602,111.475 233.816,108.743 C234.158916,108.506448 234.579119,108.409533 234.991,108.472 C235.413,108.532 235.724,108.743 235.925,109.105 C236.206,109.386 236.327,109.748 236.287,110.19 C236.247,110.632 236.066,110.974 235.745,111.215 C231.767,114.269 227.227,115.796 222.124,115.796 C216.057,115.796 210.883,113.717 206.604,109.558 L206.603,109.554 Z M273.173,114.346 L273.173,96.144 L251.475,96.144 L251.475,114.346 C251.475,114.748 251.324,115.089 251.023,115.371 C250.7404,115.644758 250.36144,115.796341 249.968,115.793 C249.566,115.793 249.225,115.652 248.943,115.371 C248.666901,115.102216 248.514178,114.731265 248.521,114.346 L248.521,75.049 C248.521,74.647 248.662,74.306 248.943,74.024 C249.211784,73.747901 249.582735,73.5951776 249.968,73.602 C250.361399,73.598874 250.74028,73.7504263 251.023,74.024 C251.324,74.305 251.475,74.647 251.475,75.049 L251.475,93.251 L273.173,93.251 L273.173,75.049 C273.173,74.647 273.314,74.306 273.595,74.024 C273.863784,73.747901 274.234735,73.5951776 274.62,73.602 C275.013399,73.598874 275.39228,73.7504263 275.675,74.024 C275.976,74.305 276.127,74.647 276.127,75.049 L276.127,114.346 C276.127,114.748 275.976,115.089 275.675,115.371 C275.3924,115.644758 275.01344,115.796341 274.62,115.793 C274.218,115.793 273.877,115.652 273.595,115.371 C273.318901,115.102216 273.166178,114.731265 273.173,114.346 Z M290.109,96.023 C289.346,96.023 288.964,95.641 288.964,94.878 C288.964,94.115 289.346,93.733 290.109,93.733 L302.947,93.733 C303.71,93.733 304.092,94.095 304.092,94.818 C304.092,95.18 303.982,95.471 303.761,95.692 C303.547021,95.9100122 303.252401,96.0298146 302.947,96.023 L290.109,96.023 Z M348.392,114.346 L348.392,79.629 L334.891,98.374 C334.61,98.816 334.208,99.037 333.686,99.037 L333.565,99.037 C333.002,99.037 332.581,98.816 332.299,98.374 L318.798,79.69 L318.798,114.346 C318.798,114.748 318.657,115.089 318.376,115.371 C318.107216,115.647099 317.736265,115.799822 317.351,115.793 C316.957601,115.796126 316.57872,115.644574 316.296,115.371 C316.003995,115.11092 315.839108,114.737004 315.844,114.346 L315.844,75.29 C315.844,74.808 316.045,74.426 316.447,74.145 L316.568,74.024 C317.372,73.502 318.055,73.622 318.617,74.386 L333.625,95.18 L348.572,74.386 C348.773,74.065 349.084,73.874 349.506,73.813 C349.928,73.753 350.3,73.823 350.621,74.024 C351.063,74.466 351.284,74.888 351.284,75.29 L351.284,114.346 C351.284,114.748 351.143,115.089 350.862,115.371 C350.593216,115.647099 350.222265,115.799822 349.837,115.793 C349.435,115.793 349.094,115.652 348.812,115.371 C348.535901,115.102216 348.383178,114.731265 348.39,114.346 L348.392,114.346 Z M366.715,114.346 L366.715,75.049 C366.715,74.647 366.856,74.306 367.137,74.024 C367.405784,73.747901 367.776735,73.5951776 368.162,73.602 L389.86,73.602 C390.262,73.602 390.603,73.743 390.885,74.024 C391.166,74.305 391.307,74.657 391.307,75.079 C391.307,75.501 391.166,75.852 390.885,76.134 C390.616216,76.410099 390.245265,76.5628224 389.86,76.556 L369.669,76.556 L369.669,93.251 L387.329,93.251 C387.731,93.251 388.072,93.402 388.354,93.703 C388.635,94.004 388.776,94.356 388.776,94.758 C388.776,95.16 388.635,95.501 388.354,95.783 C388.085216,96.059099 387.714265,96.2118224 387.329,96.205 L369.669,96.205 L369.669,112.84 L389.86,112.84 C390.262,112.84 390.603,112.981 390.885,113.262 C391.166,113.543 391.307,113.895 391.307,114.317 C391.307,114.739 391.166,115.09 390.885,115.372 C390.616216,115.648099 390.245265,115.800822 389.86,115.794 L368.042,115.794 C367.68,115.754 367.369,115.603 367.108,115.342 C366.847,115.081 366.716,114.749 366.716,114.348 L366.715,114.346 Z M401.371,115.491 C400.567,114.888 400.487,114.205 401.13,113.442 L414.691,94.818 L401.13,76.194 C400.854522,75.8927561 400.732513,75.4817599 400.799,75.079 C400.859,74.657 401.05,74.346 401.372,74.145 C401.673244,73.869522 402.08424,73.7475133 402.487,73.814 C402.909,73.874 403.22,74.065 403.421,74.387 L416.5,92.348 L429.579,74.387 C430.222,73.624 430.905,73.543 431.628,74.146 C431.949,74.347 432.15,74.658 432.231,75.08 C432.311,75.502 432.211,75.874 431.93,76.195 L418.309,94.819 L431.93,113.443 C432.211,113.764 432.312,114.126 432.231,114.528 C432.151,114.93 431.95,115.241 431.628,115.462 C431.328836,115.675779 430.970693,115.791433 430.603,115.793 C430.241,115.793 429.9,115.572 429.578,115.13 L416.499,97.229 L403.42,115.13 C403.179,115.572 402.857,115.793 402.456,115.793 C402.054,115.793 401.693,115.693 401.371,115.492 L401.371,115.491 Z M444.646,112.779 C444.646,111.935 444.937,111.222 445.52,110.639 C446.103,110.056 446.816,109.765 447.66,109.765 C448.504,109.765 449.217,110.056 449.8,110.639 C450.383,111.222 450.674,111.935 450.674,112.779 C450.674,113.623 450.383,114.336 449.8,114.919 C449.217,115.502 448.504,115.793 447.66,115.793 C446.816,115.793 446.103,115.502 445.52,114.919 C444.937,114.336 444.646,113.623 444.646,112.779 Z M460.256,114.346 L460.256,75.049 C460.256,74.647 460.397,74.306 460.678,74.024 C460.946784,73.747901 461.317735,73.5951776 461.703,73.602 C462.096399,73.598874 462.47528,73.7504263 462.758,74.024 C463.059,74.305 463.21,74.647 463.21,75.049 L463.21,114.346 C463.21,114.748 463.059,115.089 462.758,115.371 C462.4754,115.644758 462.09644,115.796341 461.703,115.793 C461.301,115.793 460.96,115.652 460.678,115.371 C460.401901,115.102216 460.249178,114.731265 460.256,114.346 Z M476.349,94.396 C476.389,88.449 478.378,83.396 482.316,79.238 C486.254,75.079 491.045,73 496.691,73 C502.336,73 507.108,75.079 511.006,79.238 C514.904,83.397 516.872,88.449 516.913,94.396 C516.873,100.343 514.904,105.396 511.006,109.554 C507.108,113.713 502.337,115.792 496.691,115.792 C491.046,115.792 486.254,113.713 482.316,109.554 C478.378,105.395 476.389,100.343 476.349,94.396 Z M484.395,81.317 C481,84.853 479.302,89.203 479.302,94.366 C479.302,99.529 481,103.899 484.395,107.475 C487.79,111.051 491.859,112.839 496.6,112.839 C501.341,112.839 505.4,111.041 508.775,107.445 C512.15,103.849 513.858,99.499 513.898,94.396 C513.858,89.213 512.16,84.853 508.805,81.317 C505.45,77.781 501.392,76.013 496.63,76.013 C491.869,76.013 487.79,77.781 484.395,81.317 Z" id="Shape"></path>
            <g id="Group">
                <path d="M0.886,11.764 C0.886,11.764 -0.413,8.5 0.886,5.925 C3.762,1.745 8.624,7.751 12.115,10.096 C32.238,23.61 52.799,37.809 75.331,46.382 C58.342,48.361 45.316,41.378 32.078,34.704 C20.802,29.019 6.139,22.244 0.886,11.765 M25.84,0.502 C26.061,-0.628 27.504,0.502 27.504,0.502 C44.678,15.395 61.583,30.556 81.154,43.045 C75.714,44.33 70.361,40.942 65.35,38.457 C60.735,36.168 56.052,33.725 51.626,30.95 C40.093,23.719 25.239,16.313 25.84,0.503" id="Shape"></path>
                <path d="M68.261,50.135 C62.251,52.732 54.529,54.404 44.555,53.472 C35.319,52.609 21.582,46.07 15.443,40.96 C12.06,38.145 7.552,32.706 9.204,28.448 C27.867,36.703 44.009,47.487 68.262,50.136 M114.01,46.798 C112.034,52.601 103.222,51.55 98.206,54.305 C98.316,57.951 99.876,61.889 98.621,65.566 C97.057,65.467 97,63.856 96.542,62.647 C92.794,73.904 84.949,81.052 72.42,83.501 C80.089,74.926 82.903,61.481 86.976,49.3 C89.797,47.217 94.982,50.416 99.453,49.717 C104.689,48.897 108.79,43.163 114.009,46.797 M64.102,54.723 C64.809,54.57 64.887,55.048 64.934,55.557 C61.236,62.44 41.499,72.797 37.485,59.311 C47.38,58.807 57.328,58.356 64.102,54.723 M62.023,61.813 C63.404,67.009 58.748,78.926 51.21,73.908 C53.255,68.313 58.723,66.149 62.023,61.813 M104.444,81.833 C102.983,81.907 103.076,80.424 101.949,80.165 C101.006,80.61 100.438,81.43 100.285,82.668 C98.505,79.726 96.766,76.743 91.551,77.246 C95.085,73.396 105.402,74.936 104.444,81.834 M95.71,87.255 C95.198,87.073 94.856,86.721 94.878,86.004 C93.834,86.626 93.418,87.876 92.798,88.924 C92.325,85.725 90.949,79.68 84.896,82.25 C88.194,77.462 98.621,80.038 95.71,87.255 M86.145,128.546 L85.313,128.546 C74.314,120.113 69.432,103.321 67.43,87.255 C70.014,93.835 72.679,99.986 76.164,106.441 C79.767,113.114 87.432,120.91 86.145,128.546 M70.757,88.924 C71.429,88.806 71.473,89.318 72.005,89.341 C74.101,91.322 75.396,93.64 77.412,95.597 C81.792,99.851 89.48,101.364 89.889,109.36 C84.379,107.952 80.214,103.751 76.996,99.767 C74.722,96.953 73.334,93.154 71.173,90.174 C70.953,89.839 70.739,89.497 70.757,88.923" id="Shape"></path>
                <path d="M148.529,53.055 C143.491,50.319 137.634,47.157 130.23,45.965 C123.844,44.936 116.401,46.199 110.683,43.462 C111.594,42.535 113.706,41.172 112.347,39.292 C108.548,34.599 104.841,41.647 108.188,43.462 C104.365,44.438 103.249,46.7 99.038,47.216 C94.667,47.751 90.386,45.143 86.561,46.799 C82.604,48.512 81.369,59.256 79.907,63.9 C76.924,73.374 73.794,80.143 66.598,84.337 C63.899,70.02 64.55,56.443 73.668,49.302 C77.588,46.232 81.362,45.623 84.897,43.463 C91.898,39.184 98.034,27.855 109.851,32.202 C113.166,33.421 115.812,37.643 119.001,39.292 C121.56,40.615 124.798,40.545 127.735,41.377 C135.984,43.714 142.139,47.513 148.53,52.639 L148.53,53.056 L148.529,53.055 Z" id="Shape"></path>
            </g>
        </g>
    </g>
</svg>